<svg xmlns="http://www.w3.org/2000/svg" viewBox="0 0 24 24" fill="none" stroke="currentColor" stroke-width="2" stroke-linecap="round" stroke-linejoin="round">
  <path d="M15.05 5A5 5 0 0 1 19 8.95"/>
  <path d="M15.05 1A9 9 0 0 1 23 8.94"/>
  <path d="M22 16.92v3a2 2 0 0 1-2.18 2 19.79 19.79 0 0 1-8.63-3.07A19.5 19.5 0 0 1 2.15 9.81a19.79 19.79 0 0 1-3.07-8.67A2 2 0 0 1 1.06 1h3a2 2 0 0 1 2 1.72c.127.96.361 1.903.7 2.81a2 2 0 0 1-.45 2.11L5.09 8.91a16 16 0 0 0 6 6l1.27-1.27a2 2 0 0 1 2.11-.45c.907.339 1.85.573 2.81.7A2 2 0 0 1 19 16z"/>
</svg>
