<svg xmlns="http://www.w3.org/2000/svg" viewBox="0 0 24 24" fill="none" stroke="currentColor" stroke-width="2" stroke-linecap="round" stroke-linejoin="round">
  <path d="M10.68 13.31a16 16 0 0 0 3.41 2.6l1.27-1.27a2 2 0 0 1 2.11-.45c.907.339 1.85.573 2.81.7A2 2 0 0 1 22 16.92v3a2 2 0 0 1-2.18 2 19.79 19.79 0 0 1-8.63-3.07 19.42 19.42 0 0 1-3.44-3"/>
  <path d="M14.4 9.6A16 16 0 0 0 9.07 5.4L7.8 6.67a2 2 0 0 1-2.11.45A13.5 13.5 0 0 0 2.88 6.4 2 2 0 0 0 1.06 8.06v3a2 2 0 0 0 2 1.94 19.79 19.79 0 0 0 2.18-.18"/>
  <line x1="1" y1="1" x2="23" y2="23"/>
</svg>
