<?xml version="1.0" standalone="no"?>
<svg version="1.0" xmlns="http://www.w3.org/2000/svg"
 width="2816.000000pt" height="1536.000000pt" viewBox="0 0 2816.000000 1536.000000"
 preserveAspectRatio="xMidYMid meet">

<g transform="translate(0.000000,1536.000000) scale(0.100000,-0.100000)"
fill="#0ea5e9" stroke="none">
<path d="M20464 11959 c-111 -32 -308 -331 -378 -570 -110 -382 -23 -721 292
-1142 112 -148 144 -217 150 -318 6 -105 -11 -171 -51 -202 -46 -35 -307 -196
-414 -256 -318 -176 -618 -310 -923 -411 -489 -163 -905 -225 -1351 -200 -596
32 -1089 194 -2050 670 -330 164 -582 275 -861 379 -444 165 -858 224 -1348
192 -102 -7 -217 -16 -255 -21 -87 -11 -438 -46 -600 -59 -313 -27 -486 -33
-890 -29 -518 4 -725 2 -1211 -13 -721 -22 -1071 25 -1430 191 -46 21 -197
107 -335 191 -412 248 -645 356 -1094 507 -644 217 -1335 290 -1930 206 -462
-66 -917 -288 -1176 -574 -209 -230 -331 -466 -389 -748 -21 -107 -40 -331
-40 -489 l0 -102 -67 -44 c-196 -126 -356 -303 -414 -456 -12 -31 -28 -94 -36
-140 -30 -173 29 -326 150 -386 50 -24 56 -30 67 -73 66 -241 322 -487 656
-631 49 -21 171 -66 271 -100 101 -33 209 -74 240 -90 79 -39 273 -156 478
-286 209 -132 337 -206 481 -278 123 -62 339 -154 424 -182 95 -31 315 -122
422 -176 115 -57 190 -106 293 -189 129 -104 199 -155 355 -259 85 -57 159
-107 163 -111 4 -4 0 -49 -10 -101 -25 -136 -26 -556 0 -684 39 -198 132 -417
225 -530 145 -177 325 -239 482 -164 52 25 95 60 230 193 105 103 200 187 262
230 126 86 207 162 258 239 22 34 41 66 43 71 2 5 86 -19 187 -52 187 -62 532
-158 736 -206 179 -41 546 -105 764 -131 l125 -16 115 -118 c199 -203 421
-366 685 -501 272 -139 560 -239 875 -305 259 -54 607 -86 720 -67 179 32 288
140 298 296 5 90 -14 144 -107 298 -37 62 -78 132 -90 155 l-21 43 187 0
c1112 1 2325 221 3423 620 358 131 744 302 1073 476 391 208 712 411 1062 674
839 629 1514 1377 2115 2345 307 495 407 613 595 708 145 72 254 86 766 97
239 5 491 14 560 20 376 34 702 117 974 250 281 137 481 286 673 502 119 134
190 237 253 363 84 168 77 263 -23 328 -76 49 -111 47 -389 -26 -341 -90 -500
-75 -1015 98 -280 94 -413 123 -589 132 -232 11 -428 -27 -668 -131 -35 -16
-38 -15 -43 1 -47 154 -175 293 -349 379 -116 57 -233 86 -485 118 -246 32
-327 48 -444 87 -196 65 -295 157 -404 376 -42 83 -70 111 -131 131 -39 14
-73 14 -117 1z m177 -503 c180 -197 412 -288 884 -346 207 -26 317 -50 402
-91 84 -40 184 -134 220 -207 25 -51 28 -67 27 -157 0 -95 -15 -164 -59 -269
-5 -12 16 0 56 31 163 128 400 244 609 298 96 25 244 35 355 25 136 -13 264
-46 553 -141 312 -103 432 -128 627 -136 169 -6 310 10 454 52 47 14 86 23 89
21 13 -14 -170 -261 -255 -343 -341 -330 -746 -510 -1303 -579 -81 -10 -279
-19 -560 -24 -432 -8 -568 -17 -750 -46 -341 -54 -669 -202 -943 -424 -112
-91 -297 -284 -388 -406 -80 -106 -212 -315 -204 -322 2 -2 50 44 107 103 156
163 427 383 603 492 75 46 195 113 195 108 0 -2 -26 -44 -58 -92 -32 -48 -121
-187 -197 -308 -242 -384 -438 -664 -659 -940 -192 -240 -304 -364 -570 -630
-312 -312 -577 -542 -881 -765 -55 -41 -122 -91 -150 -111 -122 -90 -530 -347
-710 -446 -97 -53 -463 -236 -560 -279 -38 -18 -119 -53 -180 -79 -60 -26
-123 -53 -140 -60 -148 -65 -655 -241 -875 -305 -633 -182 -1175 -293 -1719
-350 -435 -46 -683 -60 -1081 -60 l-256 0 -42 113 c-22 61 -60 168 -82 237
-167 511 -475 822 -978 990 -67 23 -233 67 -370 100 -267 64 -419 112 -524
167 -74 39 -195 138 -247 202 -18 23 -35 40 -37 38 -10 -10 20 -105 53 -168
60 -117 186 -230 345 -310 105 -53 175 -78 423 -154 117 -35 248 -78 291 -95
202 -80 360 -179 476 -297 172 -173 227 -274 373 -683 136 -379 187 -491 338
-743 62 -104 69 -122 61 -145 -15 -44 -55 -56 -179 -55 -221 2 -675 87 -939
177 -61 21 -178 65 -201 75 -477 222 -719 402 -988 736 -75 93 -327 455 -327
470 0 5 -84 134 -100 152 -5 7 -10 15 -10 19 0 3 -29 47 -64 98 -144 205 -248
305 -390 376 -95 47 -159 61 -279 62 -102 1 -129 -12 -65 -32 118 -37 233
-115 338 -227 88 -94 117 -136 255 -373 59 -102 133 -228 163 -280 31 -52 72
-120 92 -150 56 -84 55 -81 28 -76 -12 3 -52 10 -88 16 -493 82 -878 175
-1269 306 -158 54 -457 168 -551 212 -36 16 -103 47 -150 67 -437 194 -882
463 -1381 835 l-74 55 75 7 c261 24 532 124 741 275 93 66 248 223 306 308 42
62 89 150 117 220 l16 40 -41 -45 c-126 -137 -226 -234 -303 -292 -94 -71
-304 -183 -405 -217 -352 -119 -710 -119 -1071 2 -173 57 -336 124 -505 207
-146 72 -235 123 -658 381 l-139 84 84 8 c101 9 231 43 261 68 22 18 22 18
-38 19 -234 2 -660 77 -895 157 -272 92 -530 284 -614 454 -19 41 -37 90 -38
109 l-3 35 56 8 c86 13 181 -11 439 -113 482 -191 745 -254 1163 -279 361 -22
649 25 966 158 104 44 136 53 190 54 77 2 155 -29 208 -82 17 -18 34 -28 37
-23 10 17 -26 118 -59 164 -39 53 -119 98 -190 106 -54 6 -158 -18 -255 -58
-195 -80 -355 -117 -570 -130 -427 -26 -911 70 -1405 280 -341 145 -511 171
-690 106 -38 -14 -72 -23 -76 -21 -4 3 -10 24 -13 47 -7 48 12 136 44 198 31
62 115 155 187 210 131 99 248 140 401 140 158 0 300 -37 702 -180 392 -140
686 -186 919 -145 47 8 89 19 93 23 5 5 -50 12 -124 15 -243 11 -483 80 -833
240 -428 194 -564 236 -774 240 l-101 2 0 65 c1 129 19 368 35 446 57 280 175
496 380 692 278 268 646 422 1133 473 148 15 616 6 772 -15 421 -58 799 -156
1172 -302 254 -100 434 -188 658 -324 314 -191 352 -212 465 -266 241 -114
491 -175 840 -204 160 -13 451 -13 970 1 329 9 518 9 805 0 620 -19 914 -53
1412 -162 338 -74 522 -130 1203 -364 401 -138 708 -228 985 -289 262 -57 576
-98 720 -94 l95 3 -215 54 c-453 113 -824 235 -1417 467 -675 263 -872 332
-1168 408 -195 49 -201 44 80 73 244 25 698 25 855 0 203 -33 488 -114 721
-207 171 -69 337 -145 731 -336 477 -232 704 -334 930 -418 911 -339 1745
-352 2661 -39 548 186 1058 462 1725 931 246 173 571 334 775 387 48 12 89 26
90 31 1 5 -52 10 -118 12 -241 6 -554 -88 -847 -254 -43 -24 -82 -44 -88 -44
-6 0 -10 29 -10 73 0 134 -51 249 -193 441 -237 318 -321 540 -289 766 22 151
88 323 173 447 l31 44 43 -74 c24 -41 67 -100 96 -131z"/>
<path d="M7853 8491 c-52 -13 -119 -58 -157 -105 -43 -52 -45 -64 -7 -58 26 3
29 1 34 -33 22 -136 180 -224 300 -166 25 12 57 38 72 57 31 41 44 42 75 9 33
-36 44 -31 36 15 -8 54 -50 139 -91 187 -63 73 -178 115 -262 94z m220 -123
c9 -11 17 -29 17 -40 0 -23 -43 -68 -65 -68 -24 0 -65 46 -65 74 0 32 45 69
74 60 12 -3 29 -15 39 -26z"/>
</g>
</svg>
